<?xml version="1.0" standalone="no"?>
<!DOCTYPE svg PUBLIC "-//W3C//DTD SVG 20010904//EN"
 "http://www.w3.org/TR/2001/REC-SVG-20010904/DTD/svg10.dtd">
<svg version="1.0" xmlns="http://www.w3.org/2000/svg"
 width="96.000000pt" height="96.000000pt" viewBox="0 0 96.000000 96.000000"
 preserveAspectRatio="xMidYMid meet">
<metadata>
Created by potrace 1.14, written by Peter Selinger 2001-2017
</metadata>
<g transform="translate(0.000000,96.000000) scale(0.100000,-0.100000)"
fill="#000000" stroke="none">
<path d="M407 912 c-10 -10 -17 -24 -17 -30 0 -7 -6 -12 -13 -12 -21 0 -47
-34 -47 -62 0 -25 27 -58 48 -58 8 0 12 -17 12 -45 0 -33 -4 -45 -15 -45 -8 0
-15 5 -15 10 0 6 -9 19 -20 30 -27 27 -119 28 -143 2 -10 -10 -17 -24 -17 -30
0 -7 -6 -12 -13 -12 -21 0 -47 -34 -47 -62 0 -25 27 -58 48 -58 7 0 12 -6 12
-13 0 -47 120 -67 160 -27 11 11 20 25 20 30 0 6 7 10 15 10 13 0 15 -25 15
-165 0 -132 -3 -165 -13 -165 -21 0 -47 -34 -47 -62 0 -25 27 -58 48 -58 7 0
12 -6 12 -13 0 -47 120 -67 160 -27 11 11 20 24 20 28 0 5 11 14 25 20 45 21
42 92 -5 107 -19 6 -20 15 -20 171 0 139 2 164 15 164 8 0 15 -6 15 -13 0 -49
122 -67 160 -25 26 28 30 32 58 58 28 26 28 54 0 81 -28 25 -32 29 -57 57 -40
43 -161 24 -161 -26 0 -7 -7 -12 -15 -12 -11 0 -15 11 -15 43 0 37 4 46 25 55
45 21 42 92 -5 107 -11 3 -20 11 -20 16 0 5 -9 18 -20 29 -27 27 -119 28 -143
2z"/>
</g>
</svg>
